<svg width="800" height="600" xmlns="http://www.w3.org/2000/svg">

 <g>
  <title>Layer 1</title>
  <text stroke="#ffc300" transform="matrix(3.165742227621033,0,0,3.8671417987923173,-1104.067947052496,-1159.5795617583194) " stroke-width="2" font-style="normal" font-weight="normal" xml:space="preserve" text-anchor="start" font-family="serif" font-size="50" id="svg_1" y="428.3344" x="368.9507" opacity="undefined" fill="#ffc300">Holy-Rest</text>
  <path stroke="#ffc300" id="svg_27" d="m564.39954,194.02221l-64.62819,22.23116l0,-44.43865l64.62819,22.20749zm-46.92552,-109.51038l-29.44323,59.92234l-32.49161,-31.44088l61.93484,-28.48146zm-113.24318,-45.35016l22.97918,62.50295l-45.97061,0l22.99143,-62.50295zm-113.25542,45.35016l61.95932,28.48146l-32.50385,31.44088l-29.45547,-59.92234zm-46.91328,109.51038l64.64043,-22.20749l0,44.43865l-64.64043,-22.23116zm46.91328,109.51038l29.45547,-59.89866l32.50385,31.42904l-61.95932,28.46962l0,0zm113.25542,45.38567l-22.99143,-62.51479l45.97061,0l-22.97918,62.51479zm113.24318,-45.38567l-61.94708,-28.45778l32.49161,-31.42904l29.45547,59.88683zm-193.32141,-109.51038l0,0c0,-42.7577 35.8583,-77.43027 80.09047,-77.43027c44.21993,0 80.09047,34.67257 80.09047,77.43027c0,42.76954 -35.87054,77.44211 -80.09047,77.44211c-44.24442,0 -80.09047,-34.67257 -80.09047,-77.44211l0,0z" opacity="undefined" fill-opacity="null" stroke-opacity="null" stroke-dasharray="2,2" stroke-width="2" fill="#ffc300"/>
 </g>
</svg>